<svg width="82" height="86" viewBox="0 0 82 86" fill="none" xmlns="http://www.w3.org/2000/svg">
<path d="M81.9 64.59C81.62 70.64 78.8001 72.59 77.1101 73.76L76.7201 74.04C76.6001 74.12 76.5301 74.25 76.5101 74.39C76.1101 78.36 73.0301 80.75 70.5101 82.07C67.4301 83.68 62.9901 83.29 61.2201 83.05C61.0801 83.03 60.93 83.08 60.82 83.18C60.78 83.21 57.25 86.37 51.07 85.77C44.91 85.18 42.49 81.74 42.46 81.71C42.37 81.57 42.21 81.49 42.05 81.49H42.04C37.03 81.57 34.9 80.63 32 79.06C28.74 77.3 26.23 73.23 25.61 68.69C25.58 68.49 25.43 68.32 25.22 68.28C25.13 68.25 15.62 65.93 14.16 55.93C13.18 49.25 17.51 45.4 20.39 44.04C20.24 45.07 20.21 46.11 20.28 47.16C20.3 47.44 20.53 47.64 20.81 47.63C21.09 47.61 21.3 47.37 21.28 47.09C20.94 42.15 23.18 37.46 27.59 33.9C31.81 30.48 39.05 28.19 42.78 29.09C42.99 29.15 43.2 29.06 43.32 28.88C43.39 28.77 43.97 27.92 45.08 26.86C45.1 26.85 45.11 26.84 45.12 26.82C47.81 24.28 53.55 20.54 62.85 22.61C74.87 25.28 74.3 35.46 74.27 35.89C74.25 36.11 74.3801 36.31 74.5901 36.39C74.6301 36.41 78.45 37.9 79.96 43.42C81.49 49.06 79.67 54.43 79.66 54.49C79.59 54.68 79.65 54.9 79.8 55.03C79.83 55.05 82.23 57.23 81.9 64.59Z" fill="white"/>
<path d="M27.77 32.51C27.49 32.71 27.22 32.91 26.96 33.12C26.27 33.68 25.64 34.25 25.06 34.86L25.05 34.87H25.02C19.39 36.49 11.07 37.36 6.18 34.48C2.83 32.5 1.97 30.26 1.22 28.29C0.87 27.38 0.54 26.51 0 25.78C0.9 25.13 5.97 24.52 8.67 25.32C9.48 27.29 10.85 29.16 13.12 30.35C16.67 32.21 21.01 32.66 24.39 32.66C25.69 32.66 26.86 32.59 27.77 32.51Z" fill="white"/>
<path d="M47.9501 23.39C47.9001 23.46 47.8801 23.53 47.8701 23.61C47.1601 24.02 46.5301 24.45 45.9701 24.87C47.5001 20.51 47.6701 14.72 47.3701 12.21C47.3301 11.93 47.0801 11.73 46.8101 11.77C46.5401 11.8 46.3401 12.05 46.3701 12.33C46.7101 15.1 46.4601 22.04 44.3101 26.25C44.3001 26.26 44.3001 26.28 44.3001 26.29C43.4901 27.05 42.9601 27.7 42.6901 28.05C41.2601 27.78 39.4601 27.88 37.5301 28.27C37.5301 28.26 37.5201 28.26 37.5201 28.25C36.5101 26.95 35.8801 25.62 35.5501 24.3C34.3101 19.28 37.3501 14.26 40.0501 10.65C42.0801 7.93004 41.6601 2.13004 41.4301 0.0400391C43.5401 0.850039 48.4101 3.95004 50.4801 8.79004C52.4001 13.31 51.5501 18.22 47.9501 23.39Z" fill="white"/>
<path d="M34.1001 29.25C33.2701 29.55 32.4301 29.89 31.6201 30.27C31.6101 30.27 31.6101 30.27 31.6001 30.27C24.9901 30.64 18.6101 27.13 16.9001 25.87C16.6801 25.71 16.3601 25.75 16.2001 25.98C16.0401 26.2 16.0801 26.51 16.3101 26.68C17.9201 27.87 23.5301 30.99 29.7001 31.27C29.6901 31.27 29.6901 31.28 29.6901 31.28C29.6801 31.28 29.6801 31.28 29.6701 31.28C29.5701 31.29 20.0101 32.83 13.5901 29.46C11.1301 28.17 9.54011 25.84 8.87011 22.53C8.16011 19.02 8.78011 15.6 9.16011 14.71C11.7801 15.52 29.4001 21.16 34.1001 29.25Z" fill="white"/>
<path d="M36.4801 28.52C36.0101 28.64 35.5401 28.77 35.0701 28.92C34.2101 27.37 32.9201 25.92 31.3701 24.58C31.3701 24.57 31.3701 24.57 31.3701 24.57C31.3801 24.55 31.3701 24.53 31.3601 24.51C28.6601 16.35 13.5501 5.51 11.8601 4.32C11.6501 3.64 11.9601 2.95 12.2801 2.49C13.2101 1.1 15.2301 0 16.8601 0C19.2101 0 30.8501 10.47 34.4601 24.08C34.4801 24.14 34.5001 24.21 34.5101 24.27C34.5701 24.49 34.6301 24.72 34.6801 24.94C34.6801 24.96 34.6901 24.98 34.7101 25C35.0601 26.17 35.6101 27.35 36.4801 28.52Z" fill="white"/>
<path d="M37.08 13.23C35.76 15.42 34.66 17.88 34.34 20.44C33.15 17.2 31.54 14.16 29.77 11.45L29.78 11.44C30.1 9.95999 30.35 7.29999 30.4 6.10999C31.73 6.55999 36.39 9.71999 37.05 13.14C37.06 13.17 37.06 13.2 37.08 13.23Z" fill="white"/>
</svg>
